# xmcd CD database file
#
# Track frame offsets:
#	150
#	22804
#	47667
#	74098
#	104302
#	130760
#	158471
#	176709
#	192606
#	208923
#
# Disc length: 3067 seconds
#
# Revision: 0
# Processed by: cddbd v1.5.2PL0 Copyright (c) Steve Scherf et al.
# Submitted via: CDex 1.70beta2
#
DISCID=8c0bf90a
DTITLE=Susanne Schoenwiese - Spring
DYEAR=2011
DGENRE=Jazz
TTITLE0=Spring
TTITLE1=The island
TTITLE2=Dhabar
TTITLE3=El suspiro del moro
TTITLE4=Zheng No1
TTITLE5=Emily
TTITLE6=Homo ludens
TTITLE7=Zheng No2
TTITLE8=Arrivee a Marrakech
TTITLE9=A la memoire de Margarete
EXTD=YEAR: 2011
EXTT0=
EXTT1=
EXTT2=
EXTT3=
EXTT4=
EXTT5=
EXTT6=
EXTT7=
EXTT8=
EXTT9=
PLAYORDER=
